<svg xmlns="http://www.w3.org/2000/svg" width="230" height="70"><path fill="#FFF" d="M172.135 91.597h-35.043l-.508 3.226h35.936zM133.44 115.738l-1.021 5.751 21.229 3.531.606-6.158M144.912 95.63h-8.328l-1.283 8.468c8.39-.812 9.479-7.662 9.611-8.468zM175.757 115.592l1.021 5.752-21.044 3.676-.563-6.244M173.99 104.098l-1.327-8.468h-8.327c.132.806 1.263 7.656 9.654 8.468z"/><path fill="#FFF" d="M154.416 95.63h-8.898c-.121.806-1.317 8.288-10.347 9.079l-1.611 10.365 20.654 3.166.202-3.993V95.63z"/><g fill="#FFF"><path d="M157.778 107.446c.061-.119-.136-.518-.136-.518V95.63h-2.42v13.44c1.613-.337 2.216-.964 2.556-1.624z"/><path d="M174.075 104.709c-9.029-.791-10.224-8.273-10.346-9.079h-5.38l-.062 11.286s-.078.501-.161.662c-.145.279-.148.392-.337.6-.882.977-2.45 1.291-2.937 1.372l.252 8.661 20.57-3.117-1.599-10.385z"/></g><path fill="#FFF" d="M116.51 108.956c0-4.477-.103-5.748-.186-6.723-.133-1.557.854-2.313.912-2.998.008-.087.078-.525-.139-.58-1.385-.346-6.457-2.552-5.736-16.266.004-.094.125-.313.13-.408 0 0 .378-.617-.955-1.203-.103-.045-.32.12-.431.113-1.076-.07-3.997-.863-3.997-.863s-.388-.174-.397-.348c-.011-.209-1.145-.207-1.145-.207s2.162 13.943-6.956 14.545c-8.161-.41-6.904-14.545-6.904-14.545s-1.083-.002-1.094.207c-.009.174-.396.348-.396.348s-2.92.793-3.997.863c-.111.007-.329-.158-.431-.113-1.333.586-.955 1.203-.955 1.203.006.096.125.314.13.408.72 13.714-4.351 15.92-5.736 16.266-.217.055-.146.493-.139.58.059.686 1.044 1.441.912 2.998-.083.975-.187 2.246-.187 6.723 0 11.634-1.758 19.436-1.758 19.436 7.113 9.29 15.151 8.537 20.555 8.753 5.355-.216 13.494.537 20.606-8.753.001-.001-1.706-7.803-1.706-19.436z"/><g fill="#FFF"><path d="M31.081 84.168l-1.398-.123.672-5.58 1.398.122z"/><path d="M50.199 83.421l-.006.003-.597-4.959-1.398.122.652 5.41c-2.272.976-6.821 2.948-8.857 3.979l-.016.809-.017-.809c-2.77-1.402-10.207-4.556-10.207-4.556s-2.804 11.674.089 17.003c1.317 2.426 5.52 1.941 10.134 1.922 4.613.02 8.816.504 10.133-1.922 2.894-5.328.09-17.002.09-17.002z"/><path d="M40.279 140.049c8.11 0 17.154-1.848 17.154-1.848s-1.893-25.728-5.459-34.071c-.368-.861-1.447-3.161-2.321-3.234-2.353-.198-5.449 1.137-9.394 1.138-3.939-.004-7.031-1.354-9.381-1.156-.875.074-1.954 2.348-2.321 3.209-3.566 8.344-5.459 34.116-5.459 34.116s9.044 1.847 17.154 1.847h.015l.012-.001z"/></g><path fill="#FFF" d="M53.974 303.124s-.25-1.059-.977-3.18c-.404-1.182-.819-2.135-.843-5.023-.036-4.107 1.85-7.646 1.562-7.717-1.299-.316-5.88-1.373-5.88-1.373-3.814 9.564-7.193 12.52-8.276 12.5-1.126-.02-5.725-4.418-8.833-12.5 0 0-5.269 1.217-5.719 1.373-.28.098 1.52 3.379 1.317 7.48-.146 2.959-.305 4.35-.708 5.531-.727 2.121-.944 2.955-.944 2.955.021 4.809.912 16.756.43 22.363-.115 1.316-2.175 11.044-2.722 12.521.207.307 2.712 1.619 16.901 2.115 14.189-.496 16.695-1.809 16.901-2.115-.546-1.477-2.608-11.206-2.721-12.521-.483-5.607.491-17.603.512-22.409z"/><path fill="#FFF" d="M54.085 287.293c-.026.025-.014.051-.04.141-.172.605-1.655 3.072-1.904 5.256-.315 2.775-.703 7.836 1.659 9.627.457.346.942 4.934 1.229 6.584.21 1.221.699 3.127.997 4.848.972 5.625 3.256 12.738 4.347 19.988l6.31-1.598s-.318-.201-3.31-10.771c-.936-3.309-1.537-8.119-2.381-13.252-3.183-19.313-5.964-20.75-6.75-20.824-.102-.01-.128-.024-.157.001zM24.597 287.379c.026.025.014.049.04.139.171.607 1.655 3.072 1.904 5.256.315 2.775.703 7.836-1.658 9.629-.457.346-.943 4.934-1.229 6.584-.21 1.219-.698 3.125-.997 4.848-.972 5.621-3.256 12.738-4.347 19.986L12 332.223s.317-.201 3.31-10.771c.937-3.309 1.537-8.119 2.381-13.25 3.183-19.313 5.964-20.752 6.749-20.826.102-.01.128-.024.157.003z"/><g fill="#FFF"><path d="M122.851 312.981l10.47-5.177-10.098-16.368s-.503-.676-.792-.682c-.089-.002 0 0 0 0-.463.802-1.762 1.998-1.9 6.339-.181 5.63 1.707 11.827 1.707 11.827l.613 4.061zM102.225 288.986s-.204-.618-.133-.998c.051-.269.321-.314.536-.408 2.699-1.186 4.251-3.884 5.186-3.49a59.826 59.826 0 0 1 2.624 1.193c.001 0-.565 1.696-1.917 3.13-.888.943-1.99 1.684-3.125 1.963-1.081.268-1.575.38-1.932.149-.507-.329-1.239-1.539-1.239-1.539zM101.669 288.986s.204-.618.133-.998c-.051-.269-.32-.314-.536-.408-2.698-1.186-4.251-3.884-5.186-3.49-1.272.534-2.624 1.193-2.624 1.193-.001 0 .565 1.696 1.917 3.13.888.943 1.99 1.684 3.126 1.963 1.081.268 1.573.38 1.93.149.506-.329 1.24-1.539 1.24-1.539zM80.438 312.981l-9.934-5.177 10.098-16.368s.503-.676.793-.682c.089-.002 0 0 0 0 .462.802 1.762 1.998 1.899 6.339.18 5.63-1.707 11.827-1.707 11.827l-1.149 4.061z"/><path d="M121.568 309.972s-4.159-13.152.19-19.244c0 0-7.919-3.773-10.998-4.288-.323.682-1.35 2.611-3.255 3.953-1.113.783-3.043 1.361-4.001 1.017-.665-.239-1.292-1.466-1.382-1.69l.019 2.248.015 5.103-.241.069-.22-.17.009-5.039s.142-2.169.06-2.221c0 0-.604 1.697-1.47 1.719-1.645.038-2.86-.317-3.975-1.102-1.905-1.34-2.932-3.336-3.256-4.02-3.078.516-10.998 4.156-10.998 4.156 4.352 6.093.192 19.306.192 19.306-.33 15.185-1.287 32.28-1.287 32.28H122.849c.002 0-.951-16.892-1.281-32.077zm-18.133-14.508a.388.388 0 1 1 0-.777.388.388 0 0 1 0 .777zm0-2.094a.388.388 0 1 1-.001-.775.388.388 0 0 1 .001.775z"/></g><g fill="#FFF"><path d="M177.995 290.433l-17.73 1.049-17.247-1.049v-1.982H177.995zM179.269 298.707l-.733-4.494-.496-3.124-4.508.275c.319 1.288 2.041 7.345 5.737 7.343zM147.429 291.583l-4.512-.271-.496 3.125-.733 4.494c3.702.003 5.424-6.073 5.741-7.348z"/><path d="M183.566 331.074l-4.213-31.853c-.036.001-.074.006-.111.006-4.177 0-5.932-6.63-6.217-7.832l-10.257.648-2.504.14v12.457s.648 4.602.935 5.078l4.011 24.896 18.356-3.54zM165.132 335.103l.378 2.255 18.49-3.634-.353-2.161z"/><g><path d="M155.937 334.917l4.328-24.928-1.322-5.213.165-12.492-11.174-.671c-.28 1.188-2.034 7.838-6.219 7.838-.037 0-.074-.005-.11-.007l-4.216 31.927 18.548 3.546zM137.309 331.861l-.341 2.087 18.507 3.634.377-2.176z"/></g></g><g><path fill="#FFF" d="M60.55 267.867c.283 1.347.724 2.185 1.335 2.654 0 0-.114-.662 2.927-1.198 2.465-.678 2.88.064 2.88.064.324-.59.383-1.426.123-2.66l-6.718-32.516c-.627-2.976-3.416-6.471-5.388-5.98 0 0-.149.318-.206.419-.404.719-1.006 3.003-1.055 6.674-.058 4.263 1.191 11.542 1.191 11.542l.319 1.794.813 3.876 3.779 15.331zM43.274 220.053h-4.683c-3.232 0-6.535.811-6.535 3.131v2.098c0 1.158 4.33 2.662 6.535 2.662h4.683c2.713 0 6.535-1.504 6.535-2.662v-2.098c.001-2.32-3.303-3.131-6.535-3.131zm-2.234 3.332c-2.375 0-4.119-.793-4.145-.805l.104-.445c.006.002.108-.109.277-.109h7.303c.097 0 .193.15.292.107l.1.336c-1.379.605-2.736.916-3.931.916z"/><path fill="#FFF" d="M68.516 271.17c.162 1.075-.473 2.094-1.419 2.277l-3.427.669c-.946.182-1.845-.539-2.007-1.614-.162-1.072.473-2.094 1.419-2.275l3.427-.667c.947-.185 1.845.537 2.007 1.61zM20.815 267.867c-.283 1.347-.722 2.185-1.334 2.654 0 0 .114-.662-2.927-1.198-2.466-.678-2.88.064-2.88.064-.324-.59-.383-1.426-.123-2.66l6.718-32.516c.627-2.976 3.416-6.471 5.388-5.98 0 0 .147.318.206.419.404.719 1.006 3.003 1.054 6.674.059 4.263-1.191 11.542-1.191 11.542l-.318 1.794-.813 3.876-3.78 15.331z"/><path fill="#FFF" d="M12.85 271.17c-.162 1.075.474 2.094 1.42 2.277l3.426.669c.947.182 1.845-.539 2.008-1.614.162-1.072-.473-2.094-1.42-2.275l-3.427-.667c-.947-.185-1.845.537-2.007 1.61zM55.933 263.84c.047-2.543.163-7.152.265-11.066l-1.333-6.53s-.185-.799-.385-2.879c0 0-.471-3.344-.586-4.868-.151-1.999-.012-5.468.046-6.209.2-2.516 1.11-4.055 1.11-4.055-.985-.867-2.849-1.495-4.5-1.832 0 0-2.789 2.126-8.789 2.265v-.003c-7-.013-9.543-2.262-9.543-2.262-1.651.337-4.637.965-5.622 1.832 0 0 .821 1.539 1.02 4.055.059.741.153 4.21.001 6.209-.115 1.524-.608 4.868-.608 4.868-.199 2.08-.396 2.879-.396 2.879l-1.339 6.53c.102 3.914.214 8.523.261 11.066.023 1.232-.781 10.058-1.768 11.116 0 0 .487 1.093 16.272 1.093h1.387c15.784 0 16.273-1.093 16.273-1.093-.986-1.058-1.788-9.883-1.766-11.116z"/><g fill="#FFF"><path d="M94.255 228.415s-11.678 5.047-15.411 20.035c-3.764 15.109-1.874 18.182-1.968 18.65s-.656 3.373 2.156 3.842 4.953 1.595 5.522-2.624l.569-4.216s2.888-11.548 3.025-13.473c.114-1.603.874-4.024 2.391-5.295 2.475-2.072 5.215-9.798 3.716-16.919z"/><path d="M77.414 270.722s-1.116 1.885-1.392 3.173c-.224 1.041-.018 1.327.333 1.451 1.168.41 3.079.583 4.832 1.088 1.466.424 1.55-.618 1.626-1.141.118-.813.125-3.512.125-3.512s-3.658.208-5.524-1.059zM115.453 228.415s11.708 5.047 15.442 20.035c3.764 15.109 1.875 18.182 1.968 18.65.094.469.656 3.373-2.155 3.842-2.812.469-4.954 1.595-5.522-2.624l-.569-4.216s-2.888-11.548-3.025-13.473c-.114-1.603-.968-4.094-2.485-5.365-2.477-2.072-4.989-9.657-3.654-16.849z"/><path d="M132.324 270.722s1.117 1.885 1.392 3.173c.223 1.041.018 1.327-.333 1.451-1.168.41-3.079.583-4.833 1.088-1.466.424-1.55-.618-1.626-1.141-.119-.813-.126-3.512-.126-3.512s3.66.208 5.526-1.059zM90.869 268.962s.156 1.639.019 2.475c-.137.837 1.463.969 1.724.983 3.835.226 6.682-.047 8.853.127 3.544.285 8.877-.039 10.445-.092 1.689-.06 3.544-.41 5.667-.154.88.106.941-.58.959-1.37.023-1.058.209-1.969.209-1.969s-.945 1.113-5.174 1.165c-2.074.024-5.958-.098-7.774-.087-1.963.012-3.48-.021-6.815.069-5.052.137-6.086.154-8.113-1.147z"/><path d="M119.899 246.61c-7.134-5.568-4.943-18.465-4.943-18.465s-3.948-1.99-3.492-2.172c0 0 .039-.529 3.833 1.369 9.498 4.748 2.826-9.041-6.672-7.438 0 0-2.484.955-3.583.85-.987.066-3.927-.85-3.927-.85-9.498-1.604-16.167 12.186-6.669 7.438 3.794-1.898 3.839-1.369 3.839-1.369.456.182-3.481 2.172-3.481 2.172s2.212 12.896-4.921 18.465c0 0-3.37 19.354 1.342 22.23 2.301 1.403 8.033 1.004 10.657.909 2.625-.092 3.161-.022 3.161-.022s.363-.069 2.987.022c2.624.095 8.269.494 10.571-.909 4.711-2.877 1.298-22.23 1.298-22.23zm-27.956 19.756l-.239-.494c4.713-2.273 5.559-7.414 5.567-7.465l.542.082c-.008.056-.901 5.48-5.87 7.877zm26.302 0c-4.969-2.396-5.862-7.82-5.871-7.877l.542-.082c.008.051.862 5.195 5.567 7.465l-.238.494z"/></g><g><path fill="#FFF" d="M170.079 220.081h-23.44l-.146 2.082h23.781z"/><g fill="#FFF"><path d="M168.036 226.182c.636.641 1.553 1.266 2.721 1.184-.255-2.785-.496-4.697-.496-4.697l-3.341.08c-.052.004.032 2.339 1.116 3.433z"/><path d="M170.784 227.756c-1.41.1-2.66-.74-3.342-1.66-1.056-1.428-1.025-3.207-1.009-3.318h-6.431l-.283 12.57s-.383.167-.69.414c-.589.471-.481 1.279-.481 1.279l4.217 36.788 10.379-.907s-1.339-32.198-1.801-38.973c-.177-2.589-.39-4.31-.559-6.193z"/></g><path fill="#FFF" d="M158.146 222.786l-.08 8.205 1.401 1.527.172-9.75z"/><path fill="#FFF" d="M157.786 231.161l.103-8.383-7.556-.077c.021.002.046 2.614-1.375 4.293-.678.8-1.794 1.114-3.006 1.009-.008-.002.009 0 0 0l.042-.5c.979.094 1.878-.232 2.485-.789 1.329-1.229 1.307-4.035 1.307-4.061l-3.31-.018s-.603 5.396-1.064 12.166c-.461 6.771-1.772 38.176-1.772 38.176l10.378.906s3.373-26.361 3.975-35.146c.047-.695-.002-1.689.252-2.516.209-.684 1.112-1.113 1.112-1.113l.061-2.061-1.632-1.886zM162.846 274.406l10.38-.908.16 1.818-10.38.908zM143.607 273.512l10.377.91-.16 1.817-10.376-.91z"/></g></g><path fill="none" stroke="#91AAE2" stroke-miterlimit="10" d="M281.261 71.549h115v20h-115z"/><g fill="#FFF"><path d="M154.623 154.422l-.024 7.546 1.154 1.113-.002-8.659zM142.544 151.796h26.888v2.101h-26.888zM166.775 158.159c.582.697 1.475 1.193 2.654 1.216-.011-2.818-.056-4.953-.056-4.953h-3.39c-.052-.001-.202 2.544.792 3.737z"/><path d="M169.424 159.77c-1.425-.025-2.566-.543-3.168-1.525-.935-1.526-.829-3.713-.804-3.822l-9.204-.001-.007 9.455.147 4.039.91 37.432h8.998s-.151-1.633.267-1.647c.423-.014.384 1.647.384 1.647h.852s1.444-31.991 1.575-38.831c.05-2.617.062-5.088.057-6.99l-.007.243zM154.179 162.165l-.014-7.743h-7.678c.021 0 .267 2.477-1.013 4.287-.609.862-1.704 1.278-2.93 1.278-.008 0 .008 0 0 0l-.002-.506c.992.008 1.867-.397 2.427-1.012 1.227-1.35.967-4.023.965-4.048h-3.318s-.147 5.602-.016 12.437c.131 6.84 1.575 38.489 1.575 38.489h.954s-.058-1.492.326-1.499c.388-.008.384 1.499.384 1.499h8.835s.903-26.808.735-35.683c-.013-.7-.133-2.551-.049-2.9.097-.402.394-.713.394-.713v-2.17l-1.575-1.716z"/><g><path d="M21.69 180.49l-9.788-5.101 9.114-14.773s.455-.611.715-.616c.08-.001 0 0 0 0 .417.724 1.589 1.805 1.714 5.722.163 5.082-1.541 10.674-1.541 10.674l-.214 4.094zM58.813 180.49l9.788-5.101-9.114-14.773s-.454-.611-.715-.616c-.08-.001 0 0 0 0-.417.724-1.589 1.805-1.715 5.722-.163 5.082 1.541 10.674 1.541 10.674l.215 4.094zM40.251 160.918c4.25.041 7.185-3.475 7.989-4.762-.158-.109-.344-.213-1.148-.168 0 0-1.94 3.824-6.84 3.824s-6.775-3.835-6.775-3.835c-.805-.045-1.055.069-1.213.179.803 1.288 3.903 4.803 7.987 4.762z"/><path d="M57.994 176.721s-3.754-11.559.173-17.059c0 0-6.661-2.867-9.44-3.331-.76 1.231-3.586 4.667-7.671 4.995-.255.021-.535.102-.804.074-.269.027-.516 0-.771-.028-4.2-.458-6.944-3.774-7.704-5.006-2.779.464-9.44 3.368-9.44 3.368 3.927 5.5.173 16.985.173 16.985-.298 13.704-1.158 28.329-1.158 28.329h33.56s-.162-2.736.544-2.772c.724-.038.846 2.772.846 2.772h2.85c0 .001-.86-14.624-1.158-28.327z"/></g><path d="M104.298 193.555s7.779.869 10.598-.142c.222-.081.617-.386.736-.589.578-.992.764-4.184.793-4.795.002-.063-.317-.121-.323-.207-.008-.118.469-.287.529-.408.184-.383.47-1.01.474-1.368.074-9.595 1.563-12.696 1.695-15.649.317-7.06-.612.047-.612.047s.351 8.895.421 17.48c.083 10.011 1.311 12.771 1.311 12.771-.434 6.263-1.239 6.116.294 6.919.847.445 2.503.591 3.828 0 1.325-.589.736-6.919 1.179-7.214.441-.293.422-1.449.422-1.449s.019-17.182-1.468-33.561c-.558-6.16-.438-7.105-2.06-8.531-.691-.607-4.331-1.963-4.567-1.629-.173.246-.39-.137-.591-.204-3.291-1.093-1.472-1.401-3.128-1.298-1.101.068-.321 2.908-3.961 2.66-2.363-.161-2.872 2.567-5.572 2.613M97.85 156.389c-3.64.248-3.031-2.592-4.131-2.66-1.655-.104.078.205-3.214 1.298-.2.067-.458.45-.632.204-.236-.334-3.897 1.021-4.588 1.629-1.622 1.426-1.51 2.371-2.069 8.531-1.487 16.379-1.475 33.561-1.475 33.561s-.021 1.156.421 1.449c.443.295-.149 6.625 1.177 7.214 1.325.591 2.981.445 3.829 0 1.533-.803.726-.656.293-6.919 0 0 1.228-2.761 1.311-12.771.044-5.365.198-10.852.307-14.212.484 2.499 1.148 5.997 1.198 12.334.002.358.289.985.474 1.368.06.121.538.29.53.408-.006.086-.327.145-.324.207.029.611.215 3.803.792 4.795.119.203.854.508 1.076.589 2.819 1.011 10.937.142 10.937.142v-34.553c-4.001-.046-3.55-2.775-5.912-2.614zm3.266 34.322c-.228 0-.413-.203-.413-.458 0-.253.185-.458.413-.458s.412.205.412.458c-.001.255-.184.458-.412.458zm0-6.968c-.228 0-.413-.205-.413-.459s.185-.459.413-.459.412.205.412.459-.184.459-.412.459zm0-6.238c-.228 0-.413-.204-.413-.458s.185-.459.413-.459.412.205.412.459-.184.458-.412.458zm0-7.337c-.228 0-.413-.205-.413-.459s.185-.459.413-.459.412.205.412.459-.184.459-.412.459zm0-7.336c-.228 0-.413-.205-.413-.459 0-.253.185-.458.413-.458s.412.205.412.458c-.001.253-.184.459-.412.459z"/></g><g><path fill="#FFF" d="M164.354 59.918l-.096.016m-.126-.184"/></g><g><path fill="#FFF" d="M33.918 8.074c.293-.391 1.116-.93 1.848-.968.161 0 .309.028.447.077.034.003.07.017.109.04.009.003.02.005.029.01l.008.012c.314.229.745 1.01 1.126 1.835l.202.327c.027.039.055.075.083.112.316.335 1.41 1.311 1.778 1.898.611.977.798 1.396.697 1.459l.016.025c-.518.095-2.021.281-3.199.356-1.752.112-3.729-.023-4.435-1.075-.588-.878-.114-2.229 1.291-4.108zM12.665 56.636l9.063 1.461 2.866-23.166-.031-.005.012-.099c1.49-12.347 1.355-22.686-1.144-23.09-2.499-.404-6.159 9.27-7.649 21.617-.196 1.63-.694 3.221-.811 4.763l-2.306 18.519zm1.316-2.116a.45.45 0 1 1 .9.001.45.45 0 0 1-.9-.001z"/><path fill="#FFF" d="M30.781 58.006c0 1.32-2.541 2.468-5.322 2.396-1.974-.052-3.786-.852-4.361-1.536l.067-.577 1.099.184 1.18-10.213h7.431l-.1 9.203-.002.277c0 .014.002.122.004.135s.004.12.004.131z"/><path fill="#FFF" d="M26.168 60.858c2.876 0 5.593-1.152 5.593-2.566V47.049h-8.319l1.563-12.374-.031.127c.003-.033.008 0 .012-.034 1.412-11.698 1.364-21.552-.771-22.904l.015-.195s3.232-2.217 9.035-3.375c-1.214 1.697-1.56 3.075-1.017 4.001.716 1.219 2.809 1.378 4.695 1.378 1.427 0 2.833-.387 3.337-.387l.286.104-.003 49.659H20.809l.426-3.613c.821.887 2.826 1.422 4.933 1.422zM47.909 8.074c-.293-.391-1.115-.93-1.848-.968-.161 0-.309.028-.447.077a.256.256 0 0 0-.109.04c-.009.003-.02.005-.029.01l-.008.012c-.314.229-.745 1.01-1.126 1.835l-.202.327c-.027.039-.055.075-.083.112-.316.335-1.41 1.311-1.778 1.898-.611.977-.799 1.396-.698 1.459l-.015.025c.518.095 2.021.281 3.199.356 1.752.112 3.729-.023 4.434-1.075.59-.878.115-2.229-1.29-4.108zM66.882 38.118c-.117-1.542-.614-3.132-.811-4.763-1.49-12.347-5.151-22.021-7.649-21.617-2.5.404-2.634 10.743-1.144 23.09.004.033.009.065.012.099l-.031.005 2.866 23.166 9.063-1.461-2.306-18.519zm.54 16.851a.45.45 0 0 1 0-.899.45.45 0 0 1 0 .899z"/><g><path fill="#FFF" d="M51.047 58.006c0 1.32 2.541 2.468 5.322 2.396 1.974-.052 3.785-.852 4.361-1.536l-.067-.577-1.099.184-1.18-10.213h-7.431l.1 9.203.002.277c-.001.014-.002.122-.004.135a1.95 1.95 0 0 0-.004.131z"/><path fill="#FFF" d="M56.007 60.858c-2.876 0-5.246-1.152-5.246-2.566V47.049h7.625l-1.563-12.374.031.127c-.003-.033-.008 0-.012-.034-1.411-11.698-1.364-21.552.771-22.904l-.015-.195s-3.233-2.217-9.035-3.375c1.214 1.697 1.56 3.075 1.016 4.001-.716 1.219-2.808 1.378-4.695 1.378-1.426 0-2.833-.387-3.337-.387l-.286.104.003 49.659h19.754l-.251-3.613c-.822.887-2.653 1.422-4.76 1.422z"/></g></g><g><path fill="#FFF" d="M165.373 55.613c0 1.266-2.558 3.58-4.184 3.564-4.008-.039-11.865-2.964-12.803-4.644-.898-1.611.977-4.301-.227-7.412-1.002-2.588-1.819-5.807-2.277-8.564-.926-5.563-1.323-7.771-1.407-10.375-.206-6.375-.39-11.16.924-14.563.399-1.033 1.929-1.752 2.441-1.898 1-.285 1.986-.189 3.5-.189 1.337 0 2.122.432 2.831 1.105.452.428 1.149 1.701 1.171 2.443.28 9.719-.31 14.158-.419 17.625-.209 6.678-.568 11.871.518 16.598.799 3.476 9.932 4.226 9.932 6.31z"/><path fill="#FFF" d="M162.059 49.232c-1.086-4.727-.376-9.918-.517-16.598-.073-3.484.7-7.906.419-17.625-.021-.742-.869-2.199-1.17-2.443-.758-.619-1.494-1.105-2.832-1.105-1.514 0-2.5-.096-3.5.189-.105.029-.262.09-.437.168.416.195.774.455 1.134.748.301.244 1.148 1.701 1.17 2.443.281 9.719-.391 14.141-.419 17.625-.054 6.648-.569 11.871.517 16.598.799 3.477 9.935 3.973 9.932 6.311 0 .859-1.182 2.205-2.449 2.972 1.439.354 2.813.582 3.901.592 1.626.016 4.183-2.298 4.183-3.564-.001-2.084-9.134-2.834-9.932-6.311z"/></g><g fill="#FFF"><path d="M122.616 15.081c.879-.457 3.261.734 4.563 3.105.887 1.617 2.761 5.646 3.943 8.766.983 2.596 1.574 4.637 1.969 5.998.086.295.736 2.984.935 5.146.435 4.727-.764 14.982-.764 14.982-.035.846-.627 1.52-1.022 1.879-.548.496-1.474.67-2.987.66-1.337-.01-2.249-.313-3.003-.936-.297-.248-.541-.686-.655-1.178 0 0-.138-.869-.112-1.205.16-2.139.355-9.564-.066-13.465-.659-6.074-1.638-11.117-2.713-15.846-.549-2.404-1.529-7.156-.088-7.906z"/><path d="M125.779 57.366c-.143 1.881 1.226 2.531 2.964 2.686l.152.014c1.738.152 3.187-.252 3.33-2.133l.088-1.162c.143-1.881-.324-.752-2.01-.707 0 0-.821.037-1.131.039-.225.002-1.063-.104-1.063-.104-1.541-.313-2.1-1.676-2.242.203l-.088 1.164zM112.601 10.598l-5.227 1.82c-.285.1-.5.219-.654.371-.127.215-.125.498-.02.912l.213.82c.222.871.668 1.23 1.395 1.152.311-.033.902-.229 1.332-.371l.321-.104a10.58 10.58 0 0 0 1.554-.646l.152-.08c.733-.389 2.68-1.418 2.802-2.281.032-.227.043-.449.028-.578a1.145 1.145 0 0 0-.269-.594c-.449-.409-1.105-.604-1.627-.421z"/><path d="M124.087 39.022c-1.121-11.451-4.355-22.25-2.355-24.25v-.01s-2.584-1.898-6.734-3.313c.006.033.001.063.006.096.021.182 0 .447-.041.729-.145.99-1.608 1.861-3.163 2.654l-.158.08c-.541.279-1.251.545-1.681.674l-.326.102c-.489.156-1.1.352-1.463.389-.08.008-.083.012-.158.012-.596 0-1.281-.268-1.281-.77v37.941h14.373s2.463-3.078 3.036-8.627c.375-2.561-.055-5.707-.055-5.707zm-2.481 6.562a1.17 1.17 0 0 1-.497.715l-.097.061-.218-.436.097-.061a.674.674 0 0 0 .288-.414.753.753 0 0 0-.056-.521l-3.101-6.209a.619.619 0 0 0-.366-.324.55.55 0 0 0-.464.063l-.096.063-.218-.436.096-.063a.962.962 0 0 1 .801-.109c.27.086.496.285.633.561l3.101 6.209c.138.275.174.595.097.901zM89.905 15.081c-.879-.457-3.261.734-4.563 3.105-.887 1.617-2.761 5.646-3.943 8.766-.983 2.596-1.574 4.637-1.969 5.998-.086.295-.736 2.984-.934 5.146-.434 4.727.764 14.982.764 14.982.035.846.627 1.52 1.022 1.879.548.496 1.474.67 2.987.66 1.337-.01 2.249-.313 3.003-.936.297-.248.541-.686.655-1.178 0 0 .138-.869.112-1.205-.16-2.139-.355-9.564.066-13.465.659-6.074 1.638-11.117 2.713-15.846.548-2.404 1.529-7.156.087-7.906z"/><path d="M86.742 57.366c.143 1.881-1.226 2.531-2.964 2.686l-.152.014c-1.738.152-3.187-.252-3.33-2.133l-.088-1.162c-.143-1.881.325-.752 2.01-.707 0 0 .821.037 1.131.039.225.002 1.063-.104 1.063-.104 1.541-.313 2.1-1.676 2.242.203l.088 1.164zM99.951 10.629l5.228 1.82c.285.1.499.219.654.371.126.215.125.498.02.912l-.213.82c-.223.871-.668 1.23-1.395 1.152-.311-.033-.902-.229-1.333-.371l-.321-.104a10.625 10.625 0 0 1-1.554-.646l-.152-.08c-.733-.389-2.68-1.418-2.802-2.281a2.598 2.598 0 0 1-.027-.578c.027-.227.128-.424.268-.594.448-.409 1.105-.604 1.627-.421z"/><path d="M88.403 44.729c.573 5.549 3.016 8.627 3.016 8.627h14.313V15.415c0 .699-.653.77-1.25.77-.075 0-.1-.004-.181-.012-.362-.037-.946-.232-1.435-.389l-.313-.102a11.124 11.124 0 0 1-1.674-.674l-.152-.08c-1.554-.793-3.012-1.664-3.156-2.654-.041-.281-.221-.547-.199-.729.005-.033-.123.096 0 0-4.15 1.414-6.639 3.217-6.639 3.217v.01c2 2-1.204 12.777-2.326 24.229-.002-.001-.381 3.167-.004 5.728zm2.611-.047l3.101-6.209c.138-.275.363-.475.634-.561a.96.96 0 0 1 .8.109l.097.063-.218.436-.097-.063c-.142-.09-.306-.111-.463-.063s-.288.164-.367.324L91.4 44.927a.754.754 0 0 0-.055.521.677.677 0 0 0 .287.414l.098.061-.219.436-.096-.061a1.168 1.168 0 0 1-.498-.715 1.314 1.314 0 0 1 .097-.901zM91.293 54.034s-.078 3.045.822 3.529c.984.531 2.685.41 4.144.422 6.25.053 9.473.094 9.473.094v-4.063l-14.439.018zM121.104 54.032s.149 3.045-.736 3.531c-.971.531-2.756.41-4.193.422-6.158.053-9.443.094-9.443.094v-4.063l14.372.016z"/></g></svg>