<svg xmlns="http://www.w3.org/2000/svg" width="230" height="70"><path fill="#FFF" d="M53.974-43.877s-.25-1.058-.977-3.179c-.404-1.182-.819-2.135-.843-5.024-.036-4.107 1.85-7.646 1.562-7.717-1.299-.315-5.88-1.372-5.88-1.372-3.814 9.564-7.193 12.52-8.276 12.5-1.126-.021-5.725-4.418-8.833-12.5 0 0-5.269 1.216-5.719 1.372-.28.098 1.52 3.379 1.317 7.481-.146 2.958-.305 4.349-.708 5.53-.727 2.121-.944 2.956-.944 2.956.021 4.808.912 16.755.43 22.362-.115 1.316-2.175 11.044-2.722 12.521.207.307 2.712 1.619 16.901 2.115 14.189-.496 16.695-1.809 16.901-2.115-.546-1.477-2.608-11.207-2.721-12.521-.483-5.606.491-17.601.512-22.409z"/><path fill="#FFF" d="M54.085-59.706c-.026.025-.014.05-.04.141-.172.605-1.655 3.071-1.904 5.256-.315 2.775-.703 7.835 1.659 9.627.457.346.942 4.934 1.229 6.584.21 1.22.699 3.126.997 4.848.972 5.624 3.256 12.738 4.347 19.988l6.31-1.598s-.318-.201-3.31-10.771c-.936-3.31-1.537-8.12-2.381-13.252-3.183-19.313-5.964-20.751-6.75-20.825-.102-.011-.128-.024-.157.002zM24.597-59.621c.026.025.014.049.04.14.171.606 1.655 3.071 1.904 5.256.315 2.775.703 7.836-1.658 9.628-.457.346-.943 4.934-1.229 6.584-.21 1.219-.698 3.126-.997 4.848-.972 5.622-3.256 12.738-4.347 19.987L12-14.777s.317-.201 3.31-10.771c.937-3.309 1.537-8.12 2.381-13.251 3.183-19.313 5.964-20.751 6.749-20.825.102-.011.128-.024.157.003z"/><g fill="#FFF"><path d="M122.851-34.019l10.47-5.177-10.098-16.368s-.503-.676-.792-.682c-.089-.001 0 0 0 0-.463.802-1.762 1.999-1.9 6.339-.181 5.63 1.707 11.827 1.707 11.827l.613 4.061zM102.225-58.014s-.204-.618-.133-.998c.051-.269.321-.314.536-.408 2.699-1.186 4.251-3.884 5.186-3.49a61.201 61.201 0 0 1 2.624 1.193c.001 0-.565 1.696-1.917 3.13-.888.943-1.99 1.683-3.125 1.963-1.081.267-1.575.379-1.932.149-.507-.329-1.239-1.539-1.239-1.539zM101.669-58.014s.204-.618.133-.998c-.051-.269-.32-.314-.536-.408-2.698-1.186-4.251-3.884-5.186-3.49-1.272.535-2.624 1.193-2.624 1.193-.001 0 .565 1.696 1.917 3.13.888.943 1.99 1.683 3.126 1.963 1.081.267 1.573.379 1.93.149.506-.329 1.24-1.539 1.24-1.539zM80.438-34.019l-9.934-5.177 10.098-16.368s.503-.676.793-.682c.089-.001 0 0 0 0 .462.802 1.762 1.999 1.899 6.339.18 5.63-1.707 11.827-1.707 11.827l-1.149 4.061z"/><path d="M121.568-37.028s-4.159-13.152.19-19.244c0 0-7.919-3.773-10.998-4.289-.323.683-1.35 2.612-3.255 3.954-1.113.783-3.043 1.361-4.001 1.016-.665-.239-1.292-1.465-1.382-1.69l.019 2.248.015 5.103-.241.069-.22-.169.009-5.04s.142-2.168.06-2.221c0 0-.604 1.698-1.47 1.719-1.645.039-2.86-.317-3.975-1.101-1.905-1.341-2.932-3.337-3.256-4.02-3.078.515-10.998 4.156-10.998 4.156 4.352 6.092.192 19.305.192 19.305-.33 15.184-1.287 32.28-1.287 32.28H122.849c.002.001-.951-16.892-1.281-32.076zm-18.133-14.508a.388.388 0 1 1 0-.777.388.388 0 0 1 0 .777zm0-2.094a.388.388 0 1 1-.001-.775.388.388 0 0 1 .001.775z"/></g><g fill="#FFF"><path d="M177.995-56.567l-17.73 1.049-17.247-1.049v-1.982H177.995zM179.269-48.293l-.733-4.494-.496-3.124-4.508.275c.319 1.288 2.041 7.345 5.737 7.343zM147.429-55.417l-4.512-.271-.496 3.124-.733 4.494c3.702.004 5.424-6.072 5.741-7.347z"/><path d="M183.566-15.926l-4.213-31.853c-.036.001-.074.006-.111.006-4.177 0-5.932-6.63-6.217-7.832l-10.257.648-2.504.14v12.457s.648 4.602.935 5.078l4.011 24.896 18.356-3.54zM165.132-11.897l.378 2.255L184-13.276l-.353-2.161z"/><g><path d="M155.937-12.083l4.328-24.928-1.322-5.213.165-12.492-11.174-.671c-.28 1.189-2.034 7.838-6.219 7.838-.037 0-.074-.005-.11-.006l-4.216 31.926 18.548 3.546zM137.309-15.139l-.341 2.087 18.507 3.634.377-2.176z"/></g></g><path fill="#FFF" d="M60.55 54.867c.283 1.346.724 2.185 1.335 2.654 0 0-.114-.662 2.927-1.198 2.465-.678 2.88.063 2.88.063.324-.589.383-1.426.123-2.66l-6.718-32.515c-.627-2.976-3.416-6.471-5.388-5.98 0 0-.149.318-.206.419-.404.719-1.006 3.003-1.055 6.674-.058 4.263 1.191 11.542 1.191 11.542l.319 1.794.813 3.875 3.779 15.332zM43.274 7.053h-4.683c-3.232 0-6.535.811-6.535 3.131v2.097c0 1.159 4.33 2.662 6.535 2.662h4.683c2.713 0 6.535-1.503 6.535-2.662v-2.097c.001-2.32-3.303-3.131-6.535-3.131zm-2.234 3.333c-2.375 0-4.119-.794-4.145-.805l.104-.445c.006.002.108-.109.277-.109h7.303c.097 0 .193.15.292.108l.1.335c-1.379.604-2.736.916-3.931.916z"/><path fill="#FFF" d="M68.516 58.17c.162 1.075-.473 2.094-1.419 2.277l-3.427.669c-.946.182-1.845-.539-2.007-1.614-.162-1.072.473-2.094 1.419-2.275l3.427-.667c.947-.185 1.845.537 2.007 1.61zM20.815 54.867c-.283 1.346-.722 2.185-1.334 2.654 0 0 .114-.662-2.927-1.198-2.466-.678-2.88.063-2.88.063-.324-.589-.383-1.426-.123-2.66l6.718-32.515c.627-2.976 3.416-6.471 5.388-5.98 0 0 .147.318.206.419.404.719 1.006 3.003 1.054 6.674.059 4.263-1.191 11.542-1.191 11.542l-.318 1.794-.813 3.875-3.78 15.332z"/><path fill="#FFF" d="M12.85 58.17c-.162 1.075.474 2.094 1.42 2.277l3.426.669c.947.182 1.845-.539 2.008-1.614.162-1.072-.473-2.094-1.42-2.275l-3.427-.667c-.947-.185-1.845.537-2.007 1.61zM55.933 50.84c.047-2.543.163-7.153.265-11.066l-1.333-6.53s-.185-.799-.385-2.879c0 0-.471-3.344-.586-4.869-.151-1.999-.012-5.467.046-6.209.2-2.515 1.11-4.055 1.11-4.055-.985-.867-2.849-1.495-4.5-1.832 0 0-2.789 2.126-8.789 2.265v-.003c-7-.012-9.543-2.262-9.543-2.262-1.651.337-4.637.965-5.622 1.832 0 0 .821 1.54 1.02 4.055.059.742.153 4.21.001 6.209-.115 1.525-.608 4.869-.608 4.869-.199 2.08-.396 2.879-.396 2.879l-1.339 6.53c.102 3.914.214 8.523.261 11.066.023 1.233-.781 10.058-1.768 11.116 0 0 .487 1.093 16.272 1.093h1.387c15.784 0 16.273-1.093 16.273-1.093-.986-1.058-1.788-9.883-1.766-11.116z"/><g fill="#FFF"><path d="M94.255 15.415s-11.678 5.047-15.411 20.034C75.08 50.56 76.97 53.632 76.876 54.1c-.094.469-.656 3.373 2.156 3.842s4.953 1.595 5.522-2.624l.569-4.216s2.888-11.547 3.025-13.472c.114-1.603.874-4.025 2.391-5.296 2.475-2.072 5.215-9.798 3.716-16.919z"/><path d="M77.414 57.722s-1.116 1.885-1.392 3.173c-.224 1.041-.018 1.327.333 1.451 1.168.41 3.079.583 4.832 1.088 1.466.424 1.55-.618 1.626-1.141.118-.813.125-3.512.125-3.512s-3.658.208-5.524-1.059zM115.453 15.415s11.708 5.047 15.442 20.034c3.764 15.11 1.875 18.183 1.968 18.651.094.469.656 3.373-2.155 3.842-2.812.469-4.954 1.595-5.522-2.624l-.569-4.216s-2.888-11.547-3.025-13.472c-.114-1.603-.968-4.094-2.485-5.366-2.477-2.072-4.989-9.657-3.654-16.849z"/><path d="M132.324 57.722s1.117 1.885 1.392 3.173c.223 1.041.018 1.327-.333 1.451-1.168.41-3.079.583-4.833 1.088-1.466.424-1.55-.618-1.626-1.141-.119-.813-.126-3.512-.126-3.512s3.66.208 5.526-1.059zM90.869 55.962s.156 1.639.019 2.475c-.137.837 1.463.969 1.724.983 3.835.226 6.682-.047 8.853.127 3.544.285 8.877-.039 10.445-.092 1.689-.06 3.544-.41 5.667-.154.88.106.941-.58.959-1.37.023-1.057.209-1.969.209-1.969s-.945 1.113-5.174 1.165c-2.074.024-5.958-.097-7.774-.087-1.963.012-3.48-.021-6.815.069-5.052.137-6.086.154-8.113-1.147z"/><path d="M119.899 33.61c-7.134-5.569-4.943-18.465-4.943-18.465s-3.948-1.99-3.492-2.172c0 0 .039-.529 3.833 1.37 9.498 4.748 2.826-9.041-6.672-7.438 0 0-2.484.955-3.583.85-.987.066-3.927-.85-3.927-.85-9.498-1.604-16.167 12.185-6.669 7.438 3.794-1.898 3.839-1.37 3.839-1.37.456.182-3.481 2.172-3.481 2.172s2.212 12.896-4.921 18.465c0 0-3.37 19.353 1.342 22.23 2.301 1.403 8.033 1.004 10.657.909 2.625-.092 3.161-.022 3.161-.022s.363-.069 2.987.022c2.624.095 8.269.494 10.571-.909 4.711-2.877 1.298-22.23 1.298-22.23zM91.943 53.366l-.239-.495c4.713-2.273 5.559-7.414 5.567-7.465l.542.083c-.008.056-.901 5.48-5.87 7.877zm26.302 0c-4.969-2.397-5.862-7.821-5.871-7.877l.542-.083c.008.051.862 5.196 5.567 7.465l-.238.495z"/></g><g><path fill="#FFF" d="M170.079 7.08h-23.44l-.146 2.083h23.781z"/><g fill="#FFF"><path d="M168.036 13.182c.636.641 1.553 1.266 2.721 1.185a153.446 153.446 0 0 0-.496-4.698l-3.341.081c-.052.003.032 2.339 1.116 3.432z"/><path d="M170.784 14.757c-1.41.1-2.66-.741-3.342-1.661-1.056-1.428-1.025-3.207-1.009-3.319h-6.431l-.283 12.571s-.383.167-.69.413c-.589.472-.481 1.279-.481 1.279l4.217 36.789 10.379-.907s-1.339-32.198-1.801-38.972c-.177-2.59-.39-4.311-.559-6.193z"/></g><path fill="#FFF" d="M158.146 9.785l-.08 8.205 1.401 1.528.172-9.75z"/><path fill="#FFF" d="M157.786 18.161l.103-8.384-7.556-.077c.021.002.046 2.614-1.375 4.293-.678.8-1.794 1.115-3.006 1.009-.008-.001.009 0 0 0l.042-.5c.979.093 1.878-.233 2.485-.79 1.329-1.229 1.307-4.035 1.307-4.06l-3.31-.018s-.603 5.396-1.064 12.166c-.461 6.771-1.772 38.176-1.772 38.176l10.378.906s3.373-26.361 3.975-35.147c.047-.694-.002-1.689.252-2.515.209-.684 1.112-1.113 1.112-1.113l.061-2.062-1.632-1.884zM162.839 61.405l10.38-.909.159 1.818-10.38.91zM143.612 60.507l10.376.91-.16 1.816-10.376-.91z"/></g><path fill="none" stroke="#91AAE2" stroke-miterlimit="10" d="M114.261 71.549h115v20h-115z"/></svg>