<svg xmlns="http://www.w3.org/2000/svg" width="100" height="26.277"><path fill="none" stroke="#DDD" stroke-miterlimit="10" d="M-110.571 46.798h99.884v5.086h-99.884zM-110.571 27.438h99.884v5.086h-99.884z"/><path fill="#C6C6C6" d="M83.094 17.736c1.376.718 3.539-.149 6.133 1.307 3.746 2.104 6.642.761 8.191-.281 1.587-1.065 1.908-4.489-.869-4.638-.826-.042-3.319.006-5.446-.872-5.884-2.426-7.998 1.36-8.225 1.779-.296.544-.732 2.21.216 2.705z"/><path fill="#DDD" d="M83.094 15.356c1.369.729 3.539-.149 6.133 1.307 3.746 2.104 6.642.761 8.191-.28 1.587-1.066 1.908-4.49-.869-4.639-.826-.043-3.319.006-5.446-.872-5.884-2.428-7.998 1.36-8.225 1.779-.296.544-.869 2.13.216 2.705z"/><path fill="#EFEFEF" d="M83.094 13.192c1.392.687 3.539-.148 6.133 1.308 3.746 2.104 6.642.76 8.191-.282 1.587-1.065 1.908-4.491-.869-4.637-.826-.043-3.319.006-5.446-.872-5.884-2.427-7.998 1.36-8.225 1.777-.296.546-.68 2.267.216 2.706z"/><circle fill="#58E0CF" cx="90.625" cy="9.777" r="3.081"/><path fill="#FFF" d="M92.763 8.864c-.085-.271-.255-.486-.38-.642-.375-.469-.863-.589-.863-.589s-.073-.002-.096.002c-.19.031-.298.111-.311.278a.312.312 0 0 0 .15.279l.101.052c.627.301.787.754.827.875.004.006.136.123.255.131.201.007.331-.089.344-.256a.756.756 0 0 0-.027-.13z"/><path fill="none" stroke="#DDD" stroke-miterlimit="10" d="M-90.6-3.24h5.086V21.1H-90.6zM-99.215-3.24h5.346V21.1h-5.346zM-70.983-3.24h5.086V21.1h-5.086zM-62.627-3.24h3.996V21.1h-3.996z"/><path fill="none" stroke="#DDD" stroke-miterlimit="10" d="M-115.701-3.24h99.883v6.481h-99.883z"/><path fill="#58E0CF" d="M-93.794-.353c-.274-.23-.411-.598-.411-1.101v-.526c0-.527.148-.899.444-1.119.295-.217.75-.328 1.365-.328.613 0 1.057.115 1.331.345.274.23.412.598.412 1.103v.526c0 .525-.144.897-.428 1.117-.286.219-.735.328-1.348.328-.637 0-1.092-.115-1.365-.345z"/><path fill="#515151" d="M-91.259 20.731c-.296.306-.674.46-1.134.46-.438 0-.806-.154-1.102-.46a1.553 1.553 0 0 1-.444-1.118v-14.6c0-.439.148-.812.444-1.118.295-.307.663-.46 1.102-.46.46 0 .838.153 1.134.46.296.307.444.679.444 1.118v14.6c0 .439-.148.811-.444 1.118zM-4.18 24.054c-.273.283-.624.426-1.049.426-.406 0-.746-.143-1.02-.426a1.439 1.439 0 0 1-.411-1.034V9.511c0-.407.137-.751.411-1.035a1.362 1.362 0 0 1 1.02-.426c.426 0 .776.143 1.049.426.274.284.411.628.411 1.035V23.02c0 .405-.137.75-.411 1.034zM-71.124 19.613c0 .438-.17.806-.509 1.102-.339.295-.696.443-1.069.443-.482 0-.866-.176-1.151-.526l-6.477-6.872-1.973 1.776v4.077c0 .438-.147.811-.443 1.118-.295.306-.664.46-1.101.46-.46 0-.839-.154-1.134-.46a1.55 1.55 0 0 1-.445-1.118V-1.562c0-.438.148-.811.445-1.117.295-.307.674-.46 1.134-.46.438 0 .806.153 1.101.46.296.307.443.679.443 1.117v13.35l8.055-7.397c.374-.329.756-.494 1.15-.494.373 0 .713.16 1.02.478.307.317.46.651.46 1.003 0 .438-.208.832-.625 1.183l-5.688 5.064 6.313 6.837c.33.351.494.735.494 1.151zM-63.173 20.731c-.307.306-.679.46-1.118.46a1.47 1.47 0 0 1-1.101-.46 1.553 1.553 0 0 1-.444-1.118V-1.562c0-.438.153-.811.461-1.117.306-.307.678-.46 1.117-.46.438 0 .806.153 1.103.46.295.307.443.679.443 1.117v21.175c0 .439-.153.811-.461 1.118zM-22.71 3.931c.295.307.443.679.443 1.118v14.203c0 2.739-.757 4.79-2.269 6.147-1.512 1.359-3.509 2.039-5.984 2.039-.811 0-1.61-.077-2.399-.229-.788-.154-1.437-.361-1.94-.626-.813-.372-1.218-.876-1.218-1.512 0-.109.022-.252.067-.427.132-.373.316-.658.559-.855.241-.197.515-.295.822-.295.175 0 .339.032.492.098.68.308 1.284.548 1.81.724s1.14.263 1.841.263c3.397 0 5.097-1.743 5.097-5.228v-.658a5.998 5.998 0 0 1-2.285 1.842c-.933.438-2.001.657-3.206.657-1.819 0-3.239-.58-4.258-1.742-1.021-1.162-1.53-2.686-1.53-4.57V5.05c0-.461.144-.839.428-1.135.285-.296.658-.443 1.118-.443.461 0 .839.153 1.136.46.296.307.444.679.444 1.118v9.008c0 1.447.316 2.516.952 3.205.636.69 1.601 1.036 2.893 1.036 1.249 0 2.28-.395 3.091-1.184s1.218-2.353 1.218-3.603V5.049c0-.461.142-.839.428-1.135.285-.296.656-.443 1.117-.443.458 0 .837.153 1.133.46zM-42.276 16.852a8.349 8.349 0 0 1-3.142 3.189c-1.326.768-2.789 1.15-4.389 1.15-1.601 0-3.064-.383-4.39-1.15a8.35 8.35 0 0 1-3.14-3.189c-.768-1.358-1.15-2.894-1.15-4.603 0-1.71.383-3.255 1.15-4.636.767-1.382 1.813-2.456 3.14-3.222 1.325-.768 2.789-1.15 4.39-1.15 1.6 0 3.063.383 4.389 1.15 1.327.766 2.373 1.84 3.142 3.222.767 1.381 1.15 2.926 1.15 4.636 0 1.709-.384 3.244-1.15 4.603zm-2.714-7.777c-.494-.931-1.162-1.653-2.006-2.17-.844-.514-1.78-.772-2.811-.772s-1.967.259-2.811.772c-.845.517-1.513 1.239-2.006 2.17-.493.934-.74 1.99-.74 3.174 0 1.162.247 2.202.74 3.124.493.92 1.161 1.637 2.006 2.152.844.515 1.78.772 2.811.772s1.967-.258 2.811-.772c.844-.516 1.512-1.232 2.006-2.152.493-.922.74-1.962.74-3.124 0-1.184-.247-2.24-.74-3.174zM-99.659 3.849c.295.296.443.685.443 1.167v14.27c0 .438-.148.811-.443 1.118-.296.307-.675.46-1.135.46-.46 0-.833-.147-1.118-.443-.286-.296-.428-.675-.428-1.135v-.856c-.57.768-1.348 1.42-2.334 1.957a6.573 6.573 0 0 1-3.188.805c-1.492 0-2.845-.383-4.061-1.15-1.217-.767-2.17-1.836-2.861-3.205-.69-1.37-1.036-2.911-1.036-4.619 0-1.711.345-3.251 1.036-4.62.691-1.369 1.639-2.439 2.844-3.205a7.252 7.252 0 0 1 3.979-1.15c1.161 0 2.24.24 3.238.723.997.482 1.792 1.095 2.384 1.84v-.79c0-.46.142-.844.428-1.15.284-.307.657-.46 1.118-.46.46-.001.838.147 1.134.443zm-5.096 13.66c.8-.524 1.425-1.248 1.874-2.169.449-.922.674-1.963.674-3.123 0-1.14-.225-2.171-.674-3.091-.449-.921-1.074-1.649-1.874-2.187-.8-.538-1.715-.807-2.745-.807-1.031 0-1.945.263-2.746.789-.8.526-1.425 1.25-1.874 2.17-.45.921-.674 1.963-.674 3.125 0 1.16.224 2.201.674 3.123.448.921 1.074 1.645 1.874 2.169.8.526 1.715.789 2.746.789 1.029.001 1.944-.262 2.745-.788z"/><path fill="#C6C6C6" d="M-84.908-16.294c2.975 1.552 7.653-.323 13.259 2.825 8.096 4.547 14.356 1.645 17.708-.606 3.43-2.305 4.126-9.707-1.88-10.025-1.786-.093-7.175.011-11.772-1.888-12.721-5.243-17.291 2.943-17.78 3.847-.64 1.175-1.584 4.778.465 5.847z"/><path fill="#DDD" d="M-84.908-21.439c2.962 1.574 7.653-.324 13.259 2.825 8.096 4.549 14.356 1.646 17.708-.606 3.43-2.305 4.126-9.707-1.88-10.025-1.786-.094-7.175.011-11.772-1.886-12.721-5.248-17.291 2.94-17.78 3.845-.64 1.178-1.879 4.604.465 5.847z"/><path fill="#EFEFEF" d="M-84.908-26.116c3.01 1.483 7.653-.323 13.259 2.826 8.096 4.548 14.356 1.643 17.708-.611 3.43-2.302 4.126-9.707-1.88-10.021-1.786-.094-7.175.011-11.772-1.888-12.721-5.243-17.291 2.943-17.78 3.844-.64 1.181-1.47 4.901.465 5.85z"/><path fill="#58E0CF" d="M-68.649-26.839a6.656 6.656 0 0 1-6.631-6.682 6.657 6.657 0 1 1 13.315.049 6.66 6.66 0 0 1-6.684 6.633z"/><path fill="#FFF" d="M-64.007-35.474c-.183-.585-.551-1.051-.819-1.386-.811-1.013-1.867-1.272-1.867-1.272s-.159-.003-.206.006c-.413.066-.644.241-.671.602a.668.668 0 0 0 .324.603c.022.013.195.102.217.112 1.356.65 1.701 1.629 1.79 1.891.006.013.291.269.55.282.433.017.713-.189.74-.551a1.154 1.154 0 0 0-.058-.287z"/><path fill="none" stroke="#DDD" stroke-miterlimit="10" d="M-115.819 21.191h99.883v5.086h-99.883zM-40.831-3.24h3.996V21.1h-3.996z"/><path fill="#FFF" d="M-90.402 7.028a.441.441 0 0 1-.064.284.533.533 0 0 1-.871.088 3.882 3.882 0 0 0-.097-.163c-.392-.626-.978-1.028-1.682-1.356-.002.003-.002.003-.002.001-.049-.018-.098-.034-.146-.05l-.008-.004a.531.531 0 0 1-.279-.415.517.517 0 0 1 .144-.438c.1-.109.303-.144.303-.144.136-.003.26.007.345.028 1.028.221 1.944 1.12 2.273 1.919.026.063.054.12.077.185a.854.854 0 0 1 .007.065zM-44.074 6.999c0 .144-.012.22-.063.313a.533.533 0 0 1-.87.088c-.031-.056-.061-.111-.097-.163-.445-.623-.938-1.028-1.682-1.356-.002.003-.002.003-.002.001-.049-.018-.098-.034-.146-.05a.533.533 0 0 1-.288-.419.517.517 0 0 1 .144-.438c.1-.109.304-.144.304-.144.136-.003.26.008.345.028.896.21 1.967 1.141 2.286 1.885.026.065.069.165.069.255z"/><path fill="#58E0CF" d="M40.87-66.7c-.513-.431-.769-1.118-.769-2.059v-.99c0-.986.277-1.683.833-2.094.552-.409 1.404-.614 2.555-.614 1.151 0 1.981.212 2.495.644.514.432.771 1.119.771 2.064v.99c0 .984-.269 1.681-.801 2.091-.534.411-1.375.616-2.525.616-1.194 0-2.045-.217-2.559-.648z"/><path fill="#515151" d="M45.523-27.191c-.555.577-1.264.863-2.125.863-.822 0-1.511-.286-2.065-.863-.554-.576-.831-1.269-.831-2.091V-56.64c0-.824.277-1.522.831-2.098.555-.573 1.244-.862 2.065-.862.862 0 1.571.29 2.125.862.555.575.832 1.274.832 2.098v27.358c0 .822-.277 1.515-.832 2.091zM83.256-29.282c0 .822-.321 1.509-.955 2.061-.635.553-1.305.831-2.003.831-.905 0-1.623-.326-2.157-.983l-12.137-12.88-3.697 3.33v7.641c0 .822-.276 1.515-.83 2.091-.555.577-1.243.863-2.063.863-.862 0-1.572-.286-2.124-.863-.558-.576-.836-1.269-.836-2.091v-39.682c0-.822.278-1.518.836-2.091.552-.58 1.262-.863 2.124-.863.82 0 1.509.283 2.063.863.554.573.83 1.27.83 2.091v25.016l15.096-13.86c.7-.617 1.418-.926 2.155-.926.698 0 1.338.298 1.911.894.575.593.863 1.219.863 1.881 0 .82-.391 1.557-1.173 2.214l-10.656 9.491 11.829 12.813c.616.656.924 1.376.924 2.159zM98.155-27.191c-.575.577-1.271.863-2.095.863-.822 0-1.511-.286-2.065-.863-.554-.576-.831-1.269-.831-2.091v-39.682c0-.822.287-1.518.864-2.091.572-.58 1.269-.863 2.093-.863.822 0 1.512.283 2.067.863.551.573.83 1.27.83 2.091v39.682a2.83 2.83 0 0 1-.863 2.091zM173.979-58.672c.553.573.832 1.271.832 2.095v26.614c0 5.136-1.42 8.975-4.251 11.521-2.833 2.55-6.577 3.819-11.213 3.819-1.521 0-3.018-.14-4.5-.427-1.476-.292-2.688-.675-3.636-1.175-1.52-.694-2.28-1.642-2.28-2.831 0-.206.043-.471.126-.802.246-.696.594-1.235 1.048-1.602.45-.37.961-.553 1.541-.553.326 0 .634.062.923.183a34.953 34.953 0 0 0 3.391 1.355c.984.331 2.132.493 3.449.493 6.367 0 9.552-3.269 9.552-9.797v-1.232c-1.112 1.481-2.542 2.629-4.282 3.451-1.749.822-3.751 1.23-6.012 1.23-3.407 0-6.066-1.086-7.98-3.262-1.91-2.18-2.865-5.031-2.865-8.564v-18.421c0-.865.268-1.57.803-2.127.534-.555 1.235-.831 2.098-.831.86 0 1.571.291 2.125.863.555.573.833 1.271.833 2.095v16.88c0 2.712.594 4.714 1.785 6.003 1.19 1.297 2.997 1.945 5.422 1.945 2.338 0 4.271-.742 5.793-2.222 1.517-1.474 2.281-4.408 2.281-6.748v-15.86c0-.865.262-1.57.801-2.127.534-.555 1.23-.831 2.091-.831.86.002 1.568.292 2.125.865zM137.312-34.459c-1.439 2.547-3.4 4.541-5.886 5.976-2.482 1.438-5.224 2.155-8.225 2.155-2.998 0-5.742-.716-8.228-2.155-2.483-1.436-4.445-3.429-5.881-5.976-1.438-2.545-2.156-5.423-2.156-8.624 0-3.207.718-6.1 2.156-8.69 1.436-2.586 3.397-4.6 5.881-6.033 2.485-1.438 5.229-2.157 8.228-2.157 3.001 0 5.742.719 8.225 2.157 2.485 1.433 4.446 3.447 5.886 6.033 1.438 2.59 2.157 5.483 2.157 8.69 0 3.2-.719 6.078-2.157 8.624zm-5.083-14.575c-.924-1.744-2.18-3.096-3.762-4.066-1.577-.961-3.333-1.447-5.266-1.447-1.927 0-3.686.486-5.267 1.447-1.585.97-2.832 2.322-3.758 4.066-.924 1.751-1.388 3.732-1.388 5.951 0 2.175.464 4.125 1.388 5.855.926 1.721 2.173 3.066 3.758 4.031 1.581.966 3.34 1.45 5.267 1.45 1.933 0 3.688-.484 5.266-1.45 1.582-.965 2.838-2.31 3.762-4.031.925-1.73 1.386-3.68 1.386-5.855-.001-2.219-.462-4.2-1.386-5.951zM29.783-58.827c.555.555.832 1.285.832 2.189v26.742c0 .821-.277 1.515-.832 2.09-.555.578-1.265.863-2.127.863-.861 0-1.56-.276-2.092-.829-.536-.555-.804-1.267-.804-2.125v-1.607c-1.067 1.438-2.524 2.664-4.374 3.666a12.293 12.293 0 0 1-5.974 1.509c-2.797 0-5.333-.716-7.611-2.155-2.278-1.436-4.065-3.438-5.358-6.003C.147-37.055-.5-39.945-.5-43.147c0-3.205.647-6.09 1.942-8.656 1.293-2.566 3.069-4.57 5.328-6.003 2.258-1.438 4.744-2.157 7.457-2.157 2.177 0 4.199.45 6.066 1.354 1.869.907 3.359 2.05 4.467 3.447v-1.474c0-.863.268-1.582.804-2.155.532-.578 1.231-.863 2.092-.863.863-.002 1.573.274 2.127.827zm-9.551 25.6c1.498-.981 2.669-2.339 3.512-4.063.843-1.73 1.263-3.68 1.263-5.857 0-2.132-.42-4.067-1.263-5.787-.842-1.728-2.014-3.093-3.512-4.102-1.498-1.004-3.214-1.511-5.145-1.511-1.931 0-3.646.493-5.144 1.479-1.498.986-2.67 2.344-3.51 4.068-.845 1.725-1.264 3.677-1.264 5.853 0 2.177.419 4.127 1.264 5.857.84 1.724 2.012 3.082 3.511 4.063 1.499.986 3.213 1.479 5.144 1.479 1.93 0 3.646-.493 5.144-1.479z"/><path fill="#C6C6C6" d="M190.223-33.637c3.217 1.677 8.272-.35 14.335 3.053 8.757 4.917 15.524 1.779 19.147-.657 3.71-2.49 4.46-10.493-2.032-10.84-1.931-.098-7.759.014-12.73-2.038-13.753-5.67-18.694 3.18-19.225 4.159-.692 1.271-1.712 5.165.505 6.323z"/><path fill="#DDD" d="M190.223-39.201c3.201 1.703 8.272-.35 14.335 3.054 8.757 4.917 15.524 1.778 19.147-.655 3.71-2.492 4.46-10.496-2.032-10.843-1.931-.1-7.759.014-12.73-2.039-13.753-5.674-18.694 3.18-19.225 4.159-.692 1.273-2.032 4.98.505 6.324z"/><path fill="#EFEFEF" d="M190.223-44.259c3.252 1.605 8.272-.347 14.335 3.057 8.757 4.917 15.524 1.776 19.147-.66 3.71-2.49 4.46-10.498-2.032-10.838-1.931-.1-7.759.014-12.73-2.038-13.753-5.673-18.694 3.18-19.225 4.154-.692 1.275-1.589 5.298.505 6.325z"/><path fill="#58E0CF" d="M207.802-45.042a7.194 7.194 0 0 1-7.171-7.222 7.2 7.2 0 0 1 7.221-7.179 7.208 7.208 0 0 1 7.178 7.229 7.198 7.198 0 0 1-7.228 7.172z"/><path fill="#FFF" d="M212.823-54.376c-.198-.635-.596-1.137-.889-1.5-.876-1.096-2.017-1.376-2.017-1.376s-.172-.004-.224.004c-.445.073-.696.261-.727.651a.728.728 0 0 0 .352.653c.023.014.213.11.235.121 1.466.703 1.84 1.762 1.933 2.045.01.014.317.288.597.306.47.016.773-.208.804-.598a1.509 1.509 0 0 0-.064-.306zM24.642-52.87a.83.83 0 0 1-.121.534.997.997 0 0 1-.771.514.98.98 0 0 1-.859-.348 7.933 7.933 0 0 0-.183-.305c-.733-1.174-1.832-1.927-3.151-2.543-.002.006-.002.006-.002.002-.093-.032-.185-.064-.275-.091a.999.999 0 0 1-.54-.785.987.987 0 0 1 .269-.822c.188-.206.569-.267.569-.267.254-.007.487.009.646.05 1.928.414 3.646 2.1 4.262 3.595.049.121.101.226.143.347.007.029.011.094.013.119zM133.943-52.921c0 .267-.021.41-.116.586a1.008 1.008 0 0 1-.775.514.975.975 0 0 1-.855-.348c-.062-.104-.114-.21-.183-.305-.836-1.167-1.76-1.927-3.15-2.543-.004.006-.004.006-.004.002a5.93 5.93 0 0 0-.276-.091 1.005 1.005 0 0 1-.538-.785.981.981 0 0 1 .269-.822c.186-.206.568-.267.568-.267.257-.007.487.012.645.05 1.677.395 3.688 2.139 4.284 3.532.053.118.131.307.131.477z"/><g><path fill="#58E0CF" d="M18.962 3.392c-.22-.184-.33-.479-.33-.882v-.422c0-.423.119-.722.356-.897.237-.174.601-.263 1.094-.263.492 0 .848.092 1.067.276.219.185.33.479.33.884v.422c0 .422-.115.72-.342.896-.229.176-.589.264-1.081.264-.51-.001-.874-.094-1.094-.278z"/></g><g><path fill="#515151" d="M20.995 20.295a1.21 1.21 0 0 1-.909.369c-.352 0-.646-.124-.884-.369a1.246 1.246 0 0 1-.355-.896V7.693c0-.352.119-.65.355-.896.237-.246.532-.369.884-.369.369 0 .672.123.909.369.238.245.356.544.356.896v11.705c0 .352-.119.65-.356.897z"/></g><g><path fill="#515151" d="M37.137 19.398c0 .352-.136.646-.408.883s-.558.355-.857.355c-.387 0-.694-.141-.922-.422l-5.192-5.509-1.582 1.424v3.269c0 .352-.118.649-.355.896a1.18 1.18 0 0 1-.883.369 1.242 1.242 0 0 1-1.265-1.265V2.423c0-.352.119-.65.356-.896s.54-.369.909-.369c.351 0 .646.123.883.369.237.245.355.544.355.896v10.702l6.458-5.931c.299-.264.606-.396.922-.396.299 0 .572.128.818.383.246.254.369.522.369.804 0 .351-.167.667-.501.948l-4.56 4.061 5.061 5.48c.262.284.394.59.394.924z"/></g><g><path fill="#515151" d="M43.512 20.295a1.228 1.228 0 0 1-.897.369c-.353 0-.646-.124-.883-.369a1.242 1.242 0 0 1-.356-.896V2.423c0-.352.123-.65.37-.896.245-.246.543-.369.896-.369.352 0 .646.123.884.369.236.245.355.544.355.896v16.976c0 .351-.123.649-.369.896z"/></g><g><path fill="#515151" d="M75.951 6.826c.236.246.355.544.355.896v11.387c0 2.195-.606 3.84-1.818 4.928-1.212 1.09-2.813 1.635-4.798 1.635-.65 0-1.291-.063-1.924-.184-.632-.124-1.151-.29-1.556-.502-.651-.299-.977-.702-.977-1.212 0-.088.018-.202.055-.343.105-.299.254-.527.447-.686s.413-.236.659-.236c.141 0 .272.026.395.078a15.35 15.35 0 0 0 1.451.58c.421.141.913.211 1.476.211 2.724 0 4.086-1.397 4.086-4.19v-.528a4.81 4.81 0 0 1-1.832 1.477c-.748.352-1.604.527-2.57.527-1.458 0-2.597-.466-3.414-1.396-.817-.933-1.226-2.153-1.226-3.665v-7.88c0-.37.114-.673.343-.91.228-.238.528-.356.897-.356s.672.123.91.369c.237.246.355.544.355.896v7.221c0 1.161.254 2.018.765 2.57.51.554 1.282.83 2.318.83 1.002 0 1.828-.316 2.478-.948.65-.633.977-1.887.977-2.889V7.723c0-.37.114-.673.343-.91s.526-.355.896-.355.672.122.909.368z"/></g><g><path fill="#515151" d="M60.265 17.185a6.69 6.69 0 0 1-2.519 2.557c-1.063.615-2.235.923-3.519.923-1.282 0-2.456-.308-3.519-.923a6.694 6.694 0 0 1-2.518-2.557c-.615-1.089-.922-2.32-.922-3.689 0-1.372.307-2.61.922-3.717.616-1.107 1.455-1.969 2.518-2.583 1.063-.615 2.236-.923 3.519-.923s2.456.308 3.519.923c1.064.614 1.902 1.476 2.519 2.583.615 1.106.923 2.345.923 3.717 0 1.368-.308 2.6-.923 3.689zm-2.176-6.235a4.433 4.433 0 0 0-1.607-1.74c-.677-.411-1.428-.618-2.254-.618s-1.578.207-2.253.618a4.414 4.414 0 0 0-1.608 1.74c-.396.748-.593 1.596-.593 2.545 0 .931.197 1.765.593 2.504a4.436 4.436 0 0 0 1.608 1.726c.676.413 1.427.619 2.253.619s1.577-.206 2.254-.619a4.42 4.42 0 0 0 1.607-1.726c.396-.739.594-1.573.594-2.504 0-.949-.199-1.797-.594-2.545z"/></g><g><path fill="#515151" d="M14.261 6.76c.237.237.355.549.355.936v11.44c0 .352-.119.649-.355.896a1.213 1.213 0 0 1-.91.369c-.369 0-.668-.119-.896-.356-.229-.237-.343-.54-.343-.909v-.687c-.457.616-1.08 1.139-1.871 1.569a5.26 5.26 0 0 1-2.557.646c-1.195 0-2.28-.308-3.255-.923-.976-.614-1.74-1.472-2.294-2.569-.553-1.099-.83-2.333-.83-3.703 0-1.371.277-2.605.83-3.704.554-1.098 1.314-1.955 2.28-2.569a5.818 5.818 0 0 1 3.19-.924 5.88 5.88 0 0 1 2.596.58c.799.387 1.437.878 1.911 1.475v-.632c0-.368.114-.676.343-.922.228-.246.527-.369.896-.369s.672.118.91.356zm-4.086 10.952c.641-.421 1.143-1.002 1.502-1.739.36-.739.54-1.574.54-2.504 0-.914-.18-1.74-.54-2.478a4.379 4.379 0 0 0-1.502-1.754c-.642-.43-1.375-.645-2.201-.645-.827 0-1.56.21-2.201.632a4.278 4.278 0 0 0-1.502 1.74c-.361.738-.541 1.573-.541 2.505 0 .93.18 1.765.541 2.504.359.737.861 1.318 1.502 1.739.642.421 1.375.632 2.201.632.826 0 1.559-.211 2.201-.632z"/></g><path fill="#FFF" d="M12.061 9.31a.347.347 0 0 1-.052.228.427.427 0 0 1-.698.072 2.509 2.509 0 0 0-.078-.131c-.314-.502-.783-.824-1.348-1.087-.002.002-.002.002-.002 0l-.117-.04-.007-.003a.434.434 0 0 1-.223-.334.42.42 0 0 1 .115-.351c.08-.088.243-.115.243-.115.109-.003.208.005.277.022.824.177 1.559.898 1.822 1.538.021.051.043.097.062.148.003.012.005.041.006.053zM58.823 9.286c0 .114-.01.176-.051.251a.427.427 0 0 1-.697.072c-.025-.045-.048-.089-.078-.131-.356-.5-.752-.824-1.348-1.087-.002.002-.002.002-.002 0l-.117-.04-.007-.003a.428.428 0 0 1-.224-.333.42.42 0 0 1 .114-.351c.081-.088.244-.115.244-.115.108-.003.208.006.276.022.718.168 1.577.914 1.833 1.511a.542.542 0 0 1 .057.204z"/></svg>