<svg xmlns="http://www.w3.org/2000/svg" width="80" height="80"><path fill="#FFF" d="M49.064 65.518c0 1.591-3.214 4.502-5.258 4.482-5.037-.05-14.915-3.728-16.095-5.84-1.129-2.024 1.229-5.406-.285-9.315-1.258-3.254-2.286-7.299-2.863-10.767-1.161-6.992-1.662-9.769-1.768-13.042-.258-8.013-.49-14.028 1.161-18.305.501-1.298 2.423-2.202 3.069-2.386 1.257-.358 2.497-.237 4.399-.238 1.682 0 2.667.543 3.56 1.389.567.538 1.443 2.139 1.471 3.073.354 12.216-.391 17.797-.527 22.154-.264 8.393-.715 14.922.649 20.862 1.007 4.371 12.487 5.313 12.487 7.933z"/><path fill="#FFF" d="M44.9 57.497c-1.365-5.939-.474-12.467-.65-20.862-.093-4.38.879-9.938.526-22.154-.027-.934-1.094-2.765-1.472-3.073-.95-.778-1.878-1.389-3.559-1.389-1.903.001-3.143-.121-4.399.238a4.554 4.554 0 0 0-.549.211c.523.245.973.572 1.424.94.378.308 1.445 2.139 1.472 3.073.353 12.216-.491 17.773-.526 22.154-.069 8.356-.714 14.922.65 20.862 1.004 4.37 12.487 4.994 12.485 7.933-.003 1.081-1.488 2.771-3.081 3.737 1.811.444 3.537.73 4.905.744 2.044.02 5.259-2.891 5.259-4.481 0-2.62-11.481-3.563-12.485-7.933z"/></svg>