<svg xmlns="http://www.w3.org/2000/svg" width="80" height="80"><g fill="#FFF"><path d="M60.23 15.511c1.064-.553 3.948.888 5.524 3.759 1.074 1.957 3.342 6.834 4.773 10.611 1.19 3.141 1.904 5.612 2.385 7.26.104.358.89 3.612 1.13 6.23.525 5.723-.924 18.137-.924 18.137-.043 1.023-.76 1.84-1.238 2.275-.663.601-1.784.811-3.616.798-1.619-.011-2.724-.377-3.634-1.133-.362-.299-.655-.828-.795-1.424 0 0-.166-1.053-.136-1.46.194-2.588.429-11.577-.081-16.299-.797-7.354-1.981-13.458-3.282-19.182-.662-2.913-1.848-8.666-.106-9.572z"/><path d="M64.061 66.697c-.172 2.276 1.485 3.065 3.587 3.252l.186.016c2.104.185 3.857-.306 4.031-2.581l.107-1.408c.173-2.276-.394-.909-2.433-.855 0 0-.995.046-1.371.049-.272.001-1.284-.126-1.284-.126-1.868-.379-2.543-2.029-2.717.246l-.106 1.407zM48.108 10.083l-6.328 2.205c-.345.121-.604.265-.794.448-.151.26-.15.603-.022 1.104l.259.994c.268 1.053.809 1.489 1.687 1.394.377-.04 1.093-.276 1.615-.448l.388-.126a12.376 12.376 0 0 0 1.882-.783l.185-.097c.887-.469 3.244-1.715 3.391-2.76.037-.274.052-.544.034-.701a1.39 1.39 0 0 0-.325-.719c-.546-.496-1.34-.732-1.972-.511z"/><path d="M61.932 44.497C60.574 30.636 57 17.563 59 15.141v-.012s-3.048-2.298-8.072-4.009c.007.04.041.075.047.116.027.22.021.542-.028.882-.176 1.198-1.938 2.252-3.818 3.212l-.187.097c-.657.338-1.513.66-2.032.816l-.396.124c-.593.189-1.329.424-1.769.469-.098.009-.104.015-.194.015-.722 0-1.551-.324-1.551-.933V62h17.403s2.94-3.801 3.634-10.52c.457-3.099-.105-6.983-.105-6.983zm-2.922 7.944c-.092.37-.307.677-.603.865l-.115.074-.265-.527.116-.074c.172-.108.297-.287.35-.501s.028-.438-.067-.632l-3.754-7.515a.758.758 0 0 0-.444-.394.669.669 0 0 0-.561.076l-.116.075-.265-.527.117-.074c.297-.188.642-.233.969-.133a1.3 1.3 0 0 1 .768.679l3.753 7.515c.168.336.208.723.117 1.093zM20.634 15.511c-1.064-.553-3.949.888-5.524 3.759-1.075 1.957-3.342 6.834-4.774 10.611-1.19 3.141-1.904 5.612-2.384 7.26-.104.358-.89 3.612-1.13 6.23-.525 5.723.924 18.137.924 18.137.042 1.023.759 1.84 1.238 2.275.663.601 1.784.811 3.616.798 1.62-.011 2.724-.377 3.634-1.133.362-.299.655-.828.794-1.424 0 0 .167-1.053.136-1.46-.194-2.588-.429-11.577.082-16.299.797-7.354 1.981-13.458 3.282-19.182.663-2.913 1.848-8.666.106-9.572z"/><path d="M16.804 66.697c.173 2.276-1.485 3.065-3.586 3.252l-.186.016c-2.105.184-3.858-.306-4.032-2.581l-.108-1.408c-.172-2.276.394-.909 2.433-.855 0 0 .995.046 1.371.049.272.001 1.284-.126 1.284-.126 1.868-.379 2.543-2.029 2.716.246l.108 1.407zM32.794 10.121l6.327 2.205c.345.121.605.265.793.448.153.26.15.603.022 1.104l-.257.994c-.268 1.054-.809 1.49-1.687 1.394-.377-.04-1.092-.277-1.614-.448l-.388-.126a12.334 12.334 0 0 1-1.882-.783l-.184-.097c-.887-.469-3.244-1.715-3.391-2.76a3.311 3.311 0 0 1-.036-.701c.033-.273.156-.513.327-.719.544-.497 1.339-.732 1.97-.511z"/><path d="M18.813 51.452c.695 6.718 3.652 10.495 3.652 10.495h17.82V15.914c-.872.847-1.04.933-1.76.933-.091 0-.246-.006-.343-.016-.439-.045-1.207-.28-1.799-.469l-.411-.124a13.645 13.645 0 0 1-2.042-.816l-.191-.097c-1.882-.96-3.648-2.015-3.823-3.212a3.547 3.547 0 0 1-.038-.882c.004-.041-.151.116 0 0-5.024 1.711-7.835 3.893-7.835 3.893v.012c2.146 2.421-1.662 15.495-3.021 29.355.001 0-.664 3.862-.209 6.961zm3.162-.109l3.753-7.515c.167-.335.438-.576.767-.679.327-.101.672-.055.968.132l.117.075-.265.527-.115-.074a.666.666 0 0 0-.56-.076.752.752 0 0 0-.444.394l-3.752 7.515a.918.918 0 0 0-.068.632.812.812 0 0 0 .35.501l.116.074-.263.527-.117-.074a1.413 1.413 0 0 1-.601-.865 1.58 1.58 0 0 1 .114-1.094zM22.56 62.665s-.216 3.685.871 4.272c1.191.643 3.436.496 5.202.511 7.566.063 11.653.113 11.653.113v-4.919l-17.726.023zM58.336 62.662s.214 3.686-.859 4.273c-1.175.644-3.385.497-5.125.511-7.454.065-11.481.115-11.481.115v-4.919l17.465.02z"/></g></svg>