<svg xmlns="http://www.w3.org/2000/svg" width="80" height="80"><path fill="#FFF" d="M70.692 44.176c-.138-1.802-.72-3.664-.948-5.57-1.743-14.44-6.024-25.756-8.947-25.282-2.924.473-3.08 12.563-1.338 27.005l.015.115-.037.006 3.353 27.094 10.6-1.708-2.698-21.66zm.632 19.709a.525.525 0 1 1 0-1.05.525.525 0 0 1 0 1.05z"/><circle fill="#FFF" cx="44.309" cy="38.93" r=".75"/><circle fill="#FFF" cx="44.309" cy="57.822" r=".75"/><circle fill="#FFF" cx="43.559" cy="20.039" r=".75"/><path fill="#FFF" d="M52.037 67.771c0 1.544 2.794 2.694 6.046 2.609 2.309-.061 4.606-1.036 5.279-1.838v-.667l-.992.223-1.635-12.619h-8.69v11.656l.002.325c0 .016-.002.142-.005.157a2.612 2.612 0 0 0-.005.154zM29.629 67.747c0 1.557-3.04 2.714-6.379 2.628-2.37-.062-4.558-1.024-5.248-1.833v-.766l1.019.224L20.7 55.354h8.922v11.753l-.002.328c0 .016.002.143.005.158.002.013.004.139.004.154z"/><path fill="#FFF" d="M57.951 70.771c-3.363 0-6.299-1.347-6.299-3.001V55.135h9.245l-1.829-14.729.037.02c-.004-.038-.01-.063-.014-.103-1.65-13.682-1.596-25.239.9-26.821l-.017-.244s-3.781-2.602-10.567-3.955c1.42 1.984 1.824 3.593 1.188 4.677-.837 1.425-3.284 1.608-5.491 1.608-1.668 0-3.506-.406-4.096-.406h-.002l.001 57.953h22.967L63.6 69.01c-.961 1.037-3.184 1.761-5.649 1.761z"/><path fill="#FFF" d="M48.736 9.037c-.343-.457-1.305-1.087-2.162-1.133a1.54 1.54 0 0 0-.521.091.301.301 0 0 0-.129.046c-.01.005-.023.006-.033.012l-.01.015c-.367.268-.871 1.181-1.316 2.146l-.236.384c-.033.045-.064.088-.098.131-.369.392-1.648 1.532-2.078 2.22-.715 1.143-.935 1.633-.816 1.707l-.018.029c.605.111 2.363.329 3.741.417 2.049.131 4.36-.027 5.187-1.259.689-1.029.134-2.608-1.511-4.806zM32.755 9.037c.343-.457 1.305-1.087 2.162-1.133.188.001.361.033.522.091.04.003.083.019.128.046.011.005.023.006.034.012l.009.015c.367.268.871 1.181 1.317 2.146l.236.384c.032.045.064.088.097.131.37.392 1.649 1.532 2.079 2.22.715 1.143.935 1.633.816 1.707l.018.029c-.605.111-2.363.329-3.741.417-2.049.131-4.361-.027-5.186-1.259-.689-1.029-.135-2.608 1.509-4.806zM8.009 65.835l10.6 1.708 3.353-27.094-.037-.006.014-.115c1.743-14.441 1.586-26.532-1.338-27.005-2.922-.474-7.204 10.842-8.946 25.282-.229 1.906-.812 3.769-.949 5.57l-2.697 21.66zm1.54-2.475a.525.525 0 1 1 1.05 0 .525.525 0 0 1-1.05 0z"/><path fill="#FFF" d="M40.196 15.134c-.59 0-2.235.453-3.903.453-2.207 0-4.654-.184-5.491-1.609-.636-1.084-.232-2.693 1.189-4.678-6.787 1.354-10.568 3.953-10.568 3.953l-.017.24c2.496 1.582 2.552 13.131.901 26.813-.004.039-.01.047-.014.085l.037-.053L20.501 55H30V67.771c0 1.654-3.062 3.001-6.426 3.001-2.465 0-4.751-.792-5.712-1.829L17.423 73h23.104l.003-57.91-.334.044zm-3.107 43.438a.75.75 0 1 1 0-1.5.75.75 0 0 1 0 1.5zm0-18.892a.75.75 0 1 1 0-1.5.75.75 0 0 1 0 1.5zm.75-18.891a.75.75 0 1 1 0-1.5.75.75 0 0 1 0 1.5z"/></svg>