<svg xmlns="http://www.w3.org/2000/svg" width="114" height="130"><g fill="#FFF"><path d="M47.753 53.424v2.759H21.771v-2.759h25.982zm-6.615-16.851H24.536v-2.694h19.878v3.149c0 3.929 0 8.051-1.082 14.252l-3.307-.356c1.112-5.779 1.112-10.097 1.112-13.896v-.455zM71.135 44.723c-4.802.974-9.128 1.266-13.326 1.266h-2.321V32.678h3.275v10.551c3.754-.064 7.729-.356 11.99-1.201l.382 2.695zm5.82 9.771c0 3.572-3.785 5.813-9.605 5.813-5.819 0-9.604-2.24-9.604-5.813 0-3.636 3.784-5.844 9.604-5.844 5.82 0 9.605 2.208 9.605 5.844zm-3.244 0c0-2.012-2.449-3.181-6.361-3.181-3.911 0-6.36 1.169-6.36 3.181 0 1.948 2.449 3.149 6.36 3.149 3.912.001 6.361-1.201 6.361-3.149zm2.958-16.686v3.474h3.975v2.76h-3.975v4.221h-3.308V30.925h3.308v4.123h3.975v2.76h-3.975zM86.725 62.156c2.161-.909 3.435-2.531 3.466-4.447-.127.032-.223.032-.35.032-1.304 0-2.448-.844-2.448-2.402 0-1.462 1.145-2.402 2.544-2.402 1.781 0 2.83 1.525 2.83 4.025 0 3.408-1.939 6.038-5.217 7.305l-.825-2.111z"/></g><g fill="#FFF"><path d="M39.914 83.022c-4.93 1.006-9 1.363-13.421 1.363h-2.067V72.893h1.05v10.486h1.018c4.294 0 8.46-.324 13.23-1.331l.19.974zM28.338 98.865h17.174v.975H27.319v-6.688h15.966v-4.188h-16.06v-.974h17.079v6.103H28.338v4.772zm20.545-20.68v.974h-4.579v7.24h-1.05V71.627h1.05v6.558h4.579zM69.052 82.567c0 2.987 1.4 7.922 4.676 10.064l-.699.845c-2.386-1.624-3.816-4.676-4.484-7.5-.509 2.824-1.75 6.006-4.134 7.727-2.387-1.785-3.595-5.064-4.104-7.889-.668 2.824-2.1 5.974-4.484 7.662l-.7-.845c3.276-2.24 4.675-7.272 4.675-10.064v-8.148h1.051v8.148c0 2.338.858 7.11 3.563 9.739 2.734-2.499 3.593-7.076 3.593-9.739v-8.148h1.049v8.148zm9.001-10.94v28.667h-1.05V71.627h1.05z"/></g><path fill="#FFF" d="M114 129.566H0V.434h114v129.132zM2.018 127.549h109.965V2.451H2.018v125.098z"/></svg>